<svg width="122" height="23" viewBox="0 0 122 23" fill="none" xmlns="http://www.w3.org/2000/svg">
<path d="M27.6646 23L36.789 0H41.3509L32.712 23H27.6646Z" fill="white"/>
<path d="M41.3509 0H46.2042L55.1345 23H50.0871L41.3509 0Z" fill="white"/>
<path d="M36.5661 12.739H46.1897L47.5454 16.3088H35.2249L36.5661 12.739Z" fill="white"/>
<path d="M65.0352 0H59.9878V22.9993H65.0352V0Z" fill="white"/>
<path d="M65.0352 0L72.2181 23H77.8484L75.1306 18.6992L69.1122 0H65.0352Z" fill="white"/>
<path d="M80.8576 0L75.1306 18.6992L77.8484 23L85.2254 0H80.8576Z" fill="white"/>
<path d="M94.5302 23L103.655 0H108.216L99.5775 23H94.5302Z" fill="white"/>
<path d="M108.216 0H113.07L122 23H116.953L108.216 0Z" fill="white"/>
<path d="M103.432 12.739H113.055L114.411 16.3088H102.09L103.432 12.739Z" fill="white"/>
<path d="M23.6843 0H0.528121V3.8331H23.6843V0Z" fill="white"/>
<path d="M90.2728 0H85.2254L85.2254 22.9993H90.2728V0Z" fill="white"/>
<path d="M24.0818 19.4219H0V22.9993H24.0818V19.4219Z" fill="white"/>
<path d="M0 19.4219L23.6843 3.8331L23.6843 8.45979L7.22477 19.4219L0 19.4219Z" fill="white"/>
</svg>
