<svg width="127" height="25" viewBox="0 0 127 25" fill="none" xmlns="http://www.w3.org/2000/svg">
<g clip-path="url(#clip0_758_2556)">
<path d="M0 21.1347V25.0001H24.9504V21.0237H7.27691L24.5388 9.07015V4.14648L0 21.1347Z" fill="black"/>
<path d="M112.675 0L117.672 13.7925H107.674L112.675 0H107.919L98.4287 25H103.575L105.875 17.8071H119.516L121.816 25H127L117.683 0H112.675Z" fill="black"/>
<path d="M93.5107 0H88.6514V25H93.5107V0Z" fill="black"/>
<path d="M75.2113 25L67.5332 0H71.9706L78.0923 20.3158L84.2106 0H88.6515L80.9733 25H75.2113Z" fill="black"/>
<path d="M67.5332 0H62.6738V25H67.5332V0Z" fill="black"/>
<path d="M43.0531 0L48.0542 13.7925H38.0554L43.0531 0H38.301L28.8105 25H33.957L36.2569 17.8071H49.8942L52.1942 25H57.3821L48.0611 0H43.0531Z" fill="black"/>
<path d="M0.411133 0V4.25746L24.5384 4.14643V0H0.411133Z" fill="black"/>
</g>
<defs>
<clipPath id="clip0_758_2556">
<rect width="127" height="25" fill="white"/>
</clipPath>
</defs>
</svg>
